
        <svg xmlns="http://www.w3.org/2000/svg" xmlns:xlink="http://www.w3.org/1999/xlink" version="1.1" width="3151.698583194046" height="404.25642658852144" viewBox="0 0 3151.698583194046 404.25642658852144">
			
			<g transform="scale(7.5849291597023045) translate(10, 10)">
				<defs id="SvgjsDefs12738"/><g id="SvgjsG12739" featureKey="nameLeftFeature-0" transform="matrix(1.1332392756580165,0,0,1.1332392756580165,-1.586535634365938,-13.598870227155007)" fill="#fff"><path d="M4.4 25.2 c0 1.6 0.8 2.44 2.6 2.8 l5.8 1.2 c2.8 0.6 4.4 2.2 4.4 5.2 c0 3.2 -2.4 5.6 -6 5.6 l-9.8 0 l0 -2.4 l9.8 0 c1.8 0 3.2 -1.4 3.2 -3.2 c0 -1.6 -0.8 -2.44 -2.6 -2.8 l-5.8 -1.2 c-2.8 -0.56 -4.4 -2.2 -4.4 -5.2 c0 -3.24 2.4 -5.6 6 -5.6 l9 0 l0 1.6 l-0.8 0.8 l-8.2 0 c-1.8 0 -3.2 1.4 -3.2 3.2 z M20.305000000000003 22 l0 -2.4 l3.2 0 l1.2 -6 l1.6 0 l0 6 l5.8 0 l0 2.4 l-5.8 0 l0 12.4 c0 1.8 1.4 3.2 3.2 3.2 l3.8 0 l0 2.4 l-3.8 0 c-3.6 0 -6 -2.4 -6 -5.6 l0 -12.4 l-3.2 0 z M53.410000000000004 40 l-1.8 0 l-0.4 -2.8 l-0.2 0 s-1.6 3.2 -5 3.2 l-3.2 0 c-3.8 0 -6 -2.4 -6 -5.6 l0 -1.2 c0 -3.2 2.4 -5.6 6 -5.6 l7.8 0 l0 -2.8 c0 -1.8 -1.4 -3.2 -3.2 -3.2 l-8.8 0 l0 -2.4 l8.8 0 c3.6 0 6 2.4 6 5.6 l0 14.8 z M42.81 38 l3.2 0 c3 0 4.6 -3.6 4.6 -3.6 l0 -4 l-7.8 0 c-1.8 0 -3.2 1.4 -3.2 3.2 l0 1.2 c0 1.8 1.4 3.2 3.2 3.2 z M63.515 12 l0 7.6 l8.2 0 c3.6 0 6 2.4 6 5.6 l0 9.2 c0 3.2 -2.4 5.6 -6 5.6 l-11 0 l0 -28 l2.8 0 z M71.715 22 l-8.2 0 l0 15.6 l8.2 0 c1.8 0 3.2 -1.4 3.2 -3.2 l0 -9.2 c0 -1.8 -1.4 -3.2 -3.2 -3.2 z M84.62 34.4 l0 -22.4 l2.8 0 l0 22.4 c0 1.8 1.4 3.2 3.2 3.2 l0.6 0 l0 2.4 l-0.6 0 c-3.6 0 -6 -2.4 -6 -5.6 z M111.32499999999999 40 l-9.6 0 c-3.8 0 -6 -2.4 -6 -5.6 l0 -9.6 c0 -3.2 2.4 -5.6 6 -5.6 l4.4 0 c3.6 0 6 2.4 6 5.6 l0 6.2 l-13.6 0 l0 3.4 c0 1.8 1.4 3.2 3.2 3.2 l9.6 0 l0 2.4 z M98.52499999999999 24.8 l0 3.8 l10.8 0 l0 -3.8 c0 -1.8 -1.4 -3.2 -3.2 -3.2 l-4.4 0 c-1.8 0 -3.2 1.4 -3.2 3.2 z M133.03 22 l-8.4 0 c-1.8 0 -3.2 1.4 -3.2 3.2 l0 9.2 c0 1.8 1.4 3.2 3.2 3.2 l9.2 0 l0 2.4 l-9.2 0 c-3.8 0 -6 -2.4 -6 -5.6 l0 -9.2 c0 -3.2 2.4 -5.6 6 -5.6 l9.2 0 l0 1.6 z M141.335 24.8 l0 10 c0 1.8 1.4 3.2 3.2 3.2 l5 0 c1.8 0 3.2 -1.4 3.2 -3.2 l0 -10 c0 -1.8 -1.4 -3.2 -3.2 -3.2 l-5 0 c-1.8 0 -3.2 1.4 -3.2 3.2 z M138.53500000000003 34.8 l0 -10 c0 -3.2 2.4 -5.6 6 -5.6 l5 0 c3.6 0 6 2.4 6 5.6 l0 10 c0 3.2 -2.4 5.6 -6 5.6 l-5 0 c-3.8 0 -6 -2.4 -6 -5.6 z M165.24 19.6 l0 20.4 l-2.8 0 l0 -20.4 l2.8 0 z M165.24 12 l0 4.8 l-2.8 0 l0 -4.8 l2.8 0 z M189.545 40 l-2.8 0 l0 -15.2 c0 -1.8 -1.4 -3.2 -3.2 -3.2 l-3.6 0 c-3 0 -4.6 3.6 -4.6 3.6 l0 14.8 l-2.8 0 l0 -20.4 l1.8 0 l0.4 2.8 l0.2 0 s1.6 -3.2 5 -3.2 l3.6 0 c3.6 0 6 2.4 6 5.6 l0 15.2 z"/></g><g id="SvgjsG12740" featureKey="inlineSymbolFeature-0" transform="matrix(0.40958138263122124,0,0,0.40958138263122124,230.9328431805912,-2.868877479363011)" fill="#fff"><g xmlns="http://www.w3.org/2000/svg"><path d="M61.623,47.5c0-15.598-12.688-28.288-28.287-28.288c-15.598,0-28.289,12.69-28.289,28.288   c0,15.599,12.691,28.288,28.289,28.288C48.934,75.788,61.623,63.099,61.623,47.5z M33.335,72.186   c-13.611,0-24.687-11.073-24.687-24.686c0-13.612,11.075-24.687,24.687-24.687c13.612,0,24.687,11.075,24.687,24.687   C58.022,61.112,46.948,72.186,33.335,72.186z"/><path d="M38.9,48.012l-7.41-4.788c-0.883-0.604-1.294-1.301-1.294-2.185c-0.06-0.882,0.353-1.626,1.234-2.23   c0.883-0.604,1.882-0.79,2.999-0.65c1.118,0.139,2,0.604,2.53,1.394c0.883,1.07,2.529,1.441,3.88,0.837   c1.354-0.697,1.883-1.999,1.002-3.067c-1.119-1.627-3.001-2.789-5.176-3.3v-1.859c0-1.255-1.236-2.231-2.823-2.231   c-1.589,0-2.823,0.976-2.823,2.231v1.813c-1.177,0.325-2.294,0.744-3.235,1.441c-2.116,1.441-3.292,3.486-3.233,5.67   c0,2.184,1.235,4.23,3.41,5.578l7.352,4.787c0.94,0.559,1.412,1.442,1.472,2.325c0,0.976-0.472,1.766-1.413,2.37   c-0.883,0.604-1.94,0.836-3.177,0.697c-1.175-0.14-2.058-0.651-2.704-1.487c-0.765-1.069-2.47-1.441-3.822-0.837   c-1.353,0.697-1.824,1.998-1.059,3.067c1.235,1.72,3.057,2.836,5.469,3.439v1.813c0,1.255,1.235,2.231,2.823,2.231   c1.587,0,2.823-0.976,2.823-2.231v-1.813c1.176-0.325,2.352-0.79,3.353-1.487c2.116-1.441,3.352-3.532,3.352-5.81   C42.37,51.498,41.075,49.452,38.9,48.012z"/><path d="M79.598,68.245H53.844c-3.634,3.594-8.205,6.243-13.31,7.543h39.063c0.746,0,1.351-0.605,1.351-1.351v-4.842   C80.949,68.85,80.344,68.245,79.598,68.245z"/><path d="M88.603,59.689H59.845c-1.279,2.776-2.98,5.319-5.026,7.543h33.784c0.746,0,1.351-0.604,1.351-1.351v-4.842   C89.954,60.294,89.349,59.689,88.603,59.689z"/><path d="M84.101,58.679c0.745,0,1.351-0.605,1.351-1.351v-4.842c0-0.746-0.605-1.35-1.351-1.35H62.29   c-0.329,2.639-1.007,5.17-1.995,7.543H84.101z"/><path d="M88.603,42.58H62.101c0.272,1.601,0.422,3.243,0.422,4.92c0,0.885-0.045,1.759-0.123,2.624h26.203   c0.746,0,1.351-0.604,1.351-1.351v-4.842C89.954,43.185,89.349,42.58,88.603,42.58z"/><path d="M75.095,41.568c0.746,0,1.352-0.604,1.352-1.351v-4.842c0-0.746-0.605-1.351-1.352-1.351H59.214   c1.229,2.347,2.15,4.877,2.702,7.543H75.095z"/></g></g><g id="SvgjsG12741" featureKey="nameRightFeature-0" transform="matrix(1.205123976652301,0,0,1.205123976652301,273.65299937975715,-15.389686542189608)" fill="#fff"><path d="M14.905 25.2 c0 1.6 0.8 2.44 2.6 2.8 l5.8 1.2 c2.8 0.6 4.4 2.2 4.4 5.2 c0 3.2 -2.4 5.6 -6 5.6 l-9.8 0 l0 -2.4 l9.8 0 c1.8 0 3.2 -1.4 3.2 -3.2 c0 -1.6 -0.8 -2.44 -2.6 -2.8 l-5.8 -1.2 c-2.8 -0.56 -4.4 -2.2 -4.4 -5.2 c0 -3.24 2.4 -5.6 6 -5.6 l9 0 l0 1.6 l-0.8 0.8 l-8.2 0 c-1.8 0 -3.2 1.4 -3.2 3.2 z M30.810000000000002 22 l0 -2.4 l3.2 0 l1.2 -6 l1.6 0 l0 6 l5.8 0 l0 2.4 l-5.8 0 l0 12.4 c0 1.8 1.4 3.2 3.2 3.2 l3.8 0 l0 2.4 l-3.8 0 c-3.6 0 -6 -2.4 -6 -5.6 l0 -12.4 l-3.2 0 z M63.915 40 l-1.8 0 l-0.4 -2.8 l-0.2 0 s-1.6 3.2 -5 3.2 l-3.2 0 c-3.8 0 -6 -2.4 -6 -5.6 l0 -1.2 c0 -3.2 2.4 -5.6 6 -5.6 l7.8 0 l0 -2.8 c0 -1.8 -1.4 -3.2 -3.2 -3.2 l-8.8 0 l0 -2.4 l8.8 0 c3.6 0 6 2.4 6 5.6 l0 14.8 z M53.315 38 l3.2 0 c3 0 4.6 -3.6 4.6 -3.6 l0 -4 l-7.8 0 c-1.8 0 -3.2 1.4 -3.2 3.2 l0 1.2 c0 1.8 1.4 3.2 3.2 3.2 z M68.82 22 l0 -2.4 l3.2 0 l1.2 -6 l1.6 0 l0 6 l5.8 0 l0 2.4 l-5.8 0 l0 12.4 c0 1.8 1.4 3.2 3.2 3.2 l3.8 0 l0 2.4 l-3.8 0 c-3.6 0 -6 -2.4 -6 -5.6 l0 -12.4 l-3.2 0 z M88.325 25.2 c0 1.6 0.8 2.44 2.6 2.8 l5.8 1.2 c2.8 0.6 4.4 2.2 4.4 5.2 c0 3.2 -2.4 5.6 -6 5.6 l-9.8 0 l0 -2.4 l9.8 0 c1.8 0 3.2 -1.4 3.2 -3.2 c0 -1.6 -0.8 -2.44 -2.6 -2.8 l-5.8 -1.2 c-2.8 -0.56 -4.4 -2.2 -4.4 -5.2 c0 -3.24 2.4 -5.6 6 -5.6 l9 0 l0 1.6 l-0.8 0.8 l-8.2 0 c-1.8 0 -3.2 1.4 -3.2 3.2 z"/></g>
			</g>
		</svg>
	